<svg id="Colors" xmlns="http://www.w3.org/2000/svg" fill="currentColor" viewBox="0 0 177.31 213.63">
    <g id="Africa">
        <path class="cls-1"
            d="M995.52,850.33c5.15-2.32,13.46-.66,15.45.34s2.66,5.48,2.66,5.48,10.3-2.83,13.45,3,4,8.14,11.79,6.31,11.47.5,13.13,2.82,2,19.69,11.29,22.26c12.12,3.33,20.16,2.86,23,3.33s3.31,3.32,6.15,5.68,5.68,2.84,8-3.31-6.15-10.41-5.67-18,13.72-12.77,15.61.48,6.35,7.94,9.66,11.73-3,29.42,2.64,33.21,9.46,1.42,10.88-3.79-.47-22.23,6.15-25.07,9.93,1.42,12.3.47,7.09-10.4,10.88-10.4c3.78,7.09,8.51,21.28,6.62,44.94-5.67,7.09-17,17.5-22.71,17-6.14,5.2-19.39,10.88-19.86,16.08,4.25,3.79,9.46,20.34-7.1,38.79-2.37,6.63-10.41,20.82-14.19,24.13s-1.42,9.93-1.42,9.93l-10.41,2.84s-25.07,41.63-67.17,15.61c-2.37-11.82,2.83-8.51,3.78-15.13s-17-26-20.34-37.38,5.2-31.69-.47-40.68-27.44-17.5-10.88-40.68c1.41-9.47,3.78-19.4,10.88-20.35-9.47-6.62-5.68-19.86-.48-23.18C994.52,871.63,995.52,850.33,995.52,850.33Z"
            transform="translate(-992.67 -849.15)" />
    </g>
</svg>