<svg id="Colors" xmlns="http://www.w3.org/2000/svg" viewBox="0 0 174.9 261.84"><defs><style>.cls-1{fill:#ffd400;}</style></defs><g id="Africa"><path class="cls-1" d="M1139.82,664.45c12.93,6.64,11.4,18.51,13.7,33.45,7.27,1.53,9.19,5.36,9.57,8s-1.91,9.19,0,10.72,19.53,8.81,21.44,14.17,0,15.7,3.07,17.61,43.65-11.1,47.1-4.59c1.92,3.63-1.29,28.57-18,54.37-13.23,20.44-42.12,37.15-56.29,61.65,2.3,10,5.36,26.81-10,32.17s-18,6.51-17.23,18.38,1.92,16.46-4.59,15.7-10.72-7.66-8.43-13.4,3.45-12.64,1.54-17.23-5-9.19-8-10c-1.91-6.13-3.44-14.93-10-13.79-1.92-10.72-2.3-23-.77-30.25s35.61-38.67,29.87-46.33-32.55,3.45-45.18-8.81c-6.13-11.48-22.1-34.78-27.33-42.28-.63-12.86,6-37.3,0-58,17.37-18.79,24.26-21.09,32.3-20.71S1134.54,663.94,1139.82,664.45Z" transform="translate(-1060.29 -664.36)"/></g></svg>