<svg id="Colors" xmlns="http://www.w3.org/2000/svg" viewBox="0 0 86.08 143.45"><defs><style>.cls-1{fill:#ffd400;}</style></defs><g id="Africa"><path class="cls-1" d="M1180.53,1015.19c2-5.14,5.65-2.06,2-5.14s-3.08-14.91-1-17,8.74-13.88,10.79-15.93-2-9.26-1.54-15.94,1-19.53,8.22-22.62,11.31-8.22,14.91-8.22,9.77-3.09,11.83-5.66,5.65-8.74,5.65-8.74-.51-6.68,2.57-7.71,9.26-2.57,9.26-2.57,0-11.31,5.65-10.8,8.74,11.83,11.31,14.91,6.69,11.83,5.66,14.91-2.06,17.48-5.14,19-7.2,3.09-7.71,6.68-2.58,20.05-2.58,23.14-10.79,14.91-12.33,21.59-12.86,19.54-13.37,21.08-5.66,12.34-5.66,13.88-9.25,8.23-9.25,8.23l-8.74-7.72-10.28,7.72-8.23-12.34Z" transform="translate(-1179.94 -894.88)"/></g></svg>