<svg id="Colors" xmlns="http://www.w3.org/2000/svg" viewBox="0 0 152.77 158.04"><defs><style>.cls-1{fill:#ffd400;}</style></defs><g id="Africa"><path class="cls-1" d="M983,811.44c24.09,2.08,14.88-6.62,24.33-8.73s16.14,2.2,18.68-1.65c10-15.26-1.38-24.91,4.61-32.3s25.78-19.85,29.73-24.69c6.72,6.7,16.41,22.85,22,29.77.46,6.46.92,9.69.92,9.69s9.23,6.92,13.38,7.84,31.38-1.84,36,6-27.22,36.45-30,46.6.93,24.92.93,24.92c-4.62,5.07-7.85,12-5.08,18.92s1.38,14.3-.46,14.3-6.92-3.69-10.15-6.46-18.07-3-21.3-3.93c-5.07-2.87-5.76-4.52-7.6-4.06-6.59-8.79-1.86-31.6-26.47-20.62-8.77-3.69,0-6-5.08-10.15s-6.92-1.38-11.53-1.38-3.23-4.62-6-5.08-11.54-1.84-15.23-1.84-13.84-17.54-14.3-21.69S983,811.44,983,811.44Z" transform="translate(-980.26 -744.07)"/></g></svg>