<svg id="Colors" xmlns="http://www.w3.org/2000/svg" viewBox="0 0 238.38 261.8"><defs><style>.cls-1{fill:#ffd400;}</style></defs><g id="Africa"><path class="cls-1" d="M983,811.44c4.37-8.11,5-17.47,1.25-20s-20,0-23.7-2.5-1.25-11.22-4.37-13.09-23.08.62-27.45,3.74-11.22,5.61-16.21,5.61-12.48-8.11-15-8.11-19.34,7.49-25,5-23.08-21.21-26.82-26.2,1.25-13.1-1.25-15S826.42,727.23,825.17,711s6.24-27.44,8.11-40.54-10-13.73-7.49-21.21,11.23-7.49,13.72-14.35,3.12-16.84,5.62-22.46,10.6-1.24,11.85-3.11,4.37-36.18,13.72-37.43,15.6,0,24.95-3.12,17.47-16.22,20-16.22,8.73,8.11,10.6,8.11,3.74-9.36,8.11-10,30.56-2.49,34.93,1.25,10.6,9.35,14.35,9.35,18.09-14.34,26.2-2.49,5.61,15.59-1.25,21.83-30.57,20-18.09,54.27,33.06,26.2,39.3,28.69,25.57,15,30.56,22.46c3.12,11.85,5,51.77,0,58s-30.56,19.34-31.81,26.82,4.37,22.46-1.87,28.07-16.84,2.5-19.34,3.75S1004.19,812.06,983,811.44Z" transform="translate(-825.03 -549.68)"/></g></svg>