<svg id="Colors" xmlns="http://www.w3.org/2000/svg" viewBox="0 0 163.43 156.25"><defs><style>.cls-1{fill:blue;}</style></defs><g id="Asia"><path id="_6" data-name="6" class="cls-1" d="M1480.68,75.48c5,2.72,10.87,5.43,8.54,8.93S1484,92.77,1483.71,96s-.31,16.4-.7,17.57-6.28,8.71-6.83,9.79-12.46-3.53-14.27-2.78-15.06,11.9-15.06,11.9-1.11,4.77,3.16,7.1,14,3.88,14,3.88,2.71,7.38.77,8.93-2.72,9.71,0,11.65,2.33,7.38,2.72,8.93,5.93,13.82,5.93,13.82-1,6.34.28,7.93,3.5,9.31,3.5,9.31l11.26-4.27,5.82-2.71,2.33-13.59s-1.16,4.27,7,1.94,14.75-4.27,16.69-4.27,13.26.21,15.37.11,3.66-4,5.6-6.33,4.27-4.65,5.44-6.21.38-4.66,1.94-10.48a52.93,52.93,0,0,1,5-11.65s5.83-9.32,15.54-7,3.1,9.32,6.6,11.65,18.63,4.66,20.57.39a36.12,36.12,0,0,0,3.5-15.14c0-5.83-9.32-11.26-11.26-16.31s-4.66-13.59-2.72-17.08,10.1-8.55,14.37-12.43,12-14,9.31-17.47-7.37-4.27-10.48-4.66-7.38-.78-7.38-.78l-1.16-10.09s-10.48-4.27-12.81,2.33c-5-8.16-29.51-5.83-29.51-5.83l-.39,12.82-20.19,1.16-3.49,8.54L1509,65.38l-1.55-16.69s-14-3.11-17.86,1.94S1476.76,63.15,1477,65,1480.68,75.48,1480.68,75.48Z" transform="translate(-1446.72 -47.74)"/></g></svg>