<svg id="Colors" xmlns="http://www.w3.org/2000/svg" fill="currentColor" viewBox="0 0 181.07 145.09">
    <g id="Asia">
        <path id="_7" data-name="7" class="cls-1"
            d="M1436.14,318.36s-5.94-3.57-8.72-4.76-7.53-6.34-7.53-6.34-2.77-5.95-1.58-7.14a100.27,100.27,0,0,0,7.53-11.89,9.92,9.92,0,0,0-1.59-7.53c-2-2.78-4.36-7.53-4.36-9.52s2-7.53,4-7.13,8.33,1.58,8.33,1.58l.4-13.08s15.06-9.51,16.65-9.51,11.1,11.89,11.1,11.89l4.75,3.57,4.36-5.95,2-15.46L1468.25,222s1.19-11.1,3.18-11.9S1485.7,201,1485.7,201s11.49-7.54,11.89-9.52,0-11.89,2-11.89,4.76,2.77,6,3.17,9.91-3.17,9.91-3.17l20.22,1.59,1.19,44,22.2,24.18s-1.59,16.25,4,15.46,10.31-10.7,15.46-9.91,15.06,10.7,16.25,14.27,4.36,17.84,4.36,19.43-5.55,5.55-5.55,9.51.8,15.46.8,15.46,0,5.55-2,5.55-8.72-4-10.3-5.95-7.14-9.11-8.33-11.1-5.94-10.7-7.13-11.89-6.35-9.12-7.53-10.31-5.16-6.34-6.74-4.75-3.57,5.94-6.74,5.94-11.5-5.15-11.1,2.78l1.19,24.18-6.35,6.74s-4,4.36-5.94,3.57S1517,314,1517,314a57.64,57.64,0,0,0-9.91,5.15c-4.75,3.17-10.7,5.55-12.29,5.55s-10.7-1.19-10.7-1.19l-16.65-4s-4.76.39-6.34,1.58-7.53,3.57-7.53,3.57l-5.55-6.34-8.72-2.38Z"
            transform="translate(-1418.01 -179.61)" />
    </g>
</svg>