<svg id="Colors" xmlns="http://www.w3.org/2000/svg" fill="currentColor" viewBox="0 0 251.39 247.05">
    <g id="Asia">
        <path id="_11" data-name="11" class="cls-1"
            d="M1240.54,475.42c15.84-3,27.22,8.42,38.6,17.32,3,10.4,3.46,35.14,6.93,40.58s8.41,5.94,7.92,13.86,4.94,29.69,8.9,32.17c-10.39,12.37-30.18,35.13-37.11,16.82-12.37,3-29.69,2-28.7-18.8s-15.35-11.39-15.84-5,2.47,19.79,12.37,29.19c9.9.5,10.39,3,10.39,3l-1.48,7.92a49.53,49.53,0,0,0,12.87-2c6.43-2,16.82-8.91,18.31,7.92,8.41,1.48,13.36,0,13.36,8.91s1,49.48-37.61,70.76-42.07,23.26-55.43,16.33-12.37-23.25-18.8-34.64-14.85-14.84-22.77-31.17-18.75-22.8-22.27-24.75-6.92-8.41-6.92-9.89-11.88-15.84-11.88-15.84l14.35-18.31s4.45-40.58-2-44-9.9,11.38-9.9,11.38-15.34-1.49-15.34-6.93c-11.87,0-30.18,3-36.12-3.46s-5.94-7.43-5.94-14.35a22.06,22.06,0,0,0-3-11.39,13,13,0,0,1-2-6.43c0-3.46.5-13.86,1.48-15.83s5.45-19.3,12.38-16.83,12.86,12.37,19.3,11.88,33.15-18.81,44-10.89,10.89,15.84,36.62,6.93c7.42,4.95,19.3,5.94,38.6-5.45,5.44,6.93,25.73,19.3,33.16,13.86A10.06,10.06,0,0,0,1240.54,475.42Z"
            transform="translate(-1051.5 -470.97)" />
    </g>
</svg>