<svg id="Colors" xmlns="http://www.w3.org/2000/svg" fill="currentColor" viewBox="0 0 126.85 167.85">
    <g id="Asia">
        <path id="_1" data-name="1" class="cls-1"
            d="M1442.72,588c3.78-4.86,7.56-13.49,7.56-13.49l7.55-12.42,11.33-12.41s8.64-7.55,11.34-3.78,10.25,20.51,15.65,23.21,8.09,5.94,10.79,5.94,17.61-18.67,21.76-18.78,17.72,19.83,17.72,19.83-13,4.34-10.88,11.9,4.86,11.87,10.26,17.27S1560.91,622,1561.45,628s8.09,18.89,7.55,23.21-9.17,28.06-11.87,31.3-9.18,11.87-12.41,9.71-2.16-4.32-4.86-11.33-10.79-15.65-12.41-15.65-7-4.32-8.1-7-10.79,3.78-7.55,7.56,6.47,7,8.63,9.17,0,8.1,1.08,10.8l5.4,13.49,6.47,8.09s-7.55,5.94-9.71,5.4-13.49-1.62-15.65-9.18-4.32-12.41-7-16.19-4.85-6.47-4.31-9.71,4.85,2.7,2.7-16.19,1.07-28.06-13-27.52-16.19,11.87-24.28-6.48-20-36.69-20-36.69Z"
            transform="translate(-1442.18 -544.87)" />
    </g>
</svg>