<svg id="Colors" xmlns="http://www.w3.org/2000/svg" viewBox="0 0 185.34 275.56"><defs><style>.cls-1{fill:blue;}</style></defs><g id="Asia"><path id="_2" data-name="2" class="cls-1" d="M1282.71,494.27c-.85,12.65-1.69,32.06,2.11,35.86s8.21,11.74,9.17,17-2,12.91.53,17.13,5.77,15.31,8.37,15,9.77,1.41,11.88,6.48,6.33,13.92,6.33,13.92c3.38,0,6.33-.84,7.6-.84s-2.53,8.44,0,11,9.28,9.28,12.23,6.33,9.71-10.13,9.71-10.13-3.8,45.57-3.8,46.83,3,2.11,3.8,5.49,2.95,15.61,2.95,15.61l8,3.8s5.06,22.78,7.59,29.54,10.13,13.5,10.13,17.72,1.69,5.9,8.86,5.9,6.33-5.48,8.44-12.23,2.95-10.55,5.49-14.35,2.11-24.47,2.11-26.58,3.79-14.35,5.48-21.52,3-16.46,5.91-18.14,6.75-12.24,7.17-15.19-.42-11.82,2.11-12.66,15.19-.85,16.46-5.49-5.07-16.87-1.69-17.3,19.41-20.25,20.25-24,8.86-8.86,7.18-18.56S1460.34,531,1454.44,531s-18.15,5.91-22.79,3-4.64-8-8.86-8-31.22-7.17-31.22-7.17-22.79-11.82-21.94-14.77,13.08-8.44,7.59-36.71c-5.48,0-12.66-.42-12.66-.42s.43-9.28-5.06-11-9.7,1.26-9.7,9.7c-5.49,3.38-11.82,10.13-15.19,9.71s-12.24-9.71-15.19-10.13-9.71,11.39-12.24,11.82-9.7-.85-12.66,1.26-2.11,12.66-4.22,13.5S1282.71,494.27,1282.71,494.27Z" transform="translate(-1281.99 -455.41)"/></g></svg>