<svg id="Colors" xmlns="http://www.w3.org/2000/svg" fill="currentColor" viewBox="0 0 232.3 288.45">
    <g id="Asia">
        <path id="_5" data-name="5" class="cls-1"
            d="M1538.14,180.31c.39,4.66,0,47,0,47l20.9,22.09s-3.81,9,1.24,10.91,13.46-9.56,18.18-5.36,12.49,5.75,14.43,12.74,3.88,10.87,3.88,14.37-4.27,18.24-4.27,20.57,3.11,14,3.11,14-1.17,8.54-3.5,12-2.33,8.54,1.56,9.32,10.48-.39,10.48,4.27,3.49,10.48,5,10.87,7.76,4.27,9.7,4.27,8.55-3.5,10.1-9.32,7.76-34.94,7-43.1-4.66-23.68-5.83-30.67-1.94-14-3.88-22.13-5.82-10.87-10.09-15.14-14.37-1.94-16.31-.78-3.11-4.27-6.6-6.21-5.83-.78-5.83-.78l2-12,7-.78,1.56-7.77s1.16-7.76,3.1-8.15,8.93-1.16,10.1-1.16,2.33-4.28,4.66-4.66,8.54,1.94,8.54,1.94l7,.77s4.66-5.82,6.21-5,5.44,7.37,5.44,7.37l12.42-1.16s7,0,1.94-9.71-1.94-19.8-.39-19.41a17.81,17.81,0,0,1,3.11,1.16s-4.27,14,3.49,14,8.93-26.4,15.53-24.46,3.11,19-1.94,26-12,15.53-12,27.18,13.59,48.15,16.69,49.7,10.49,8.54,13.2,4.27,10.1,3.5,6.22-22.91,1.94-34.55-3.5-40-4.27-20.19,1.94-22.91,6.21,3.5,10.87,3.5,5-6.21,13.59-16.7,21-15.53,15.92-22.13-13.59-12.42-12-15.14,1.94-8.15,7.37-4.66,14.37,6.21,14.76,8.15,3.49,9.71,5.43,8.55,16.31,3.1,14.76-10.87-5-24.47-12.43-25.63-5.43,5.82-19.41-7-14.76-12.42-23.69-18.25-9.7-13.2-23.29-10.87-20.58,2.33-20.58,6.21-.39,14.37-5.82,6.22-11.26-2-17.09-3.89-15.53,5-20.19-2.33-11.26-10.09-15.53-5.43-10.09,14.36-10.09,14.36,4.27,4.27-3.11,7.38-11.65,7-13.2,10.1-3.88,14.75-2.33,16.3,9.71,9.32,10.87,10.49,4.27,13.2,4.27,13.2,1.56,8.54-2.33,8.54-10.87.77-14-.39-9.71-3.49-9.71-3.49l-3.49-8.16L1558,141.1s-2.72,7-4.28,8.15-7.37,5.82-7.76,7.38.78,12,.78,12l-7.77,5.05Z"
            transform="translate(-1538.14 -68.91)" />
    </g>
</svg>