<svg id="Colors" xmlns="http://www.w3.org/2000/svg" viewBox="0 0 138.8 299.17"><defs><style>.cls-1{fill:blue;}</style></defs><g id="Asia"><path id="_9" data-name="9" class="cls-1" d="M1269.63,299.75c10.55,2.53,10.12,6.75,13.08,11s9.7,5.49,11.39,11.39,2.53,14.77,6.75,16.46,9.28-2.53,11-1.27,1.27,13.93,4.64,13.93,14.35,3.37,18.57,2.95,7.17,3.8,7.17,3.8,7.17-4.64,9.71-2.11,7.17,8.86,8.86,10.13a38.65,38.65,0,0,1,4.64,5.06s3.79-8,6.75-14.35,6.33-8.44,8-10.12a21.1,21.1,0,0,0,4.21-8,6.43,6.43,0,0,1,3.8-4.22c1.27-.42,3-5.06,3-6.75s-3.38-14.35-3.38-14.35l-12.66-13.08-6.75-7.17-2.95-6.33-3.38-4.22-10.12-1.69s-3.38-5.9-2.11-5.9,5.9-3.8,5.9-3.8,2.11-14.35,5.91-13.93,3.38-18.56-6.33-24,5.91-10.54,5.49-16.87-20.68-16.88-25.74-30,1.69-17.3,1.69-17.3l-11-2.53,2.1-8-4.21-2.11s-3.8-10.13-5.49-13.5.42-18.57-6.33-15.61-11.81,11-13.08,18.56-2.11,8.86-7.59,8.86-11.82.85-5.07-8.86,13.5-18.14,8-25.31-9.71-9.71-9.71-14.77,5.91-13.93,3.38-16.88-8.44-3.8-11-5.91-8.44-10.55-11-11-3.8,8.44-4.22,11.39-3.8,13.08-3.8,15.62-8,11-4.64,12.65,11.39,9.71,11.39,9.71l6.33,5.06-2.53,8v19.83c-5.06,6.33-14.34,21.1-13.92,25.32s8.44,26.16,5.9,30.38-5.06,18.56.85,26.58c-4.64,11-8.86,20.67-2.53,24.47s17,.21,14.2,7.07-11.39,8.68-10.26,12.83,7.45,2,7,8.79A61.23,61.23,0,0,0,1269.63,299.75Z" transform="translate(-1252.34 -71.89)"/></g></svg>