<svg id="Colors" xmlns="http://www.w3.org/2000/svg" viewBox="0 0 202.25 162.32"><defs><style>.cls-1{fill:blue;}</style></defs><g id="Asia"><path id="_4" data-name="4" class="cls-1" d="M1436.14,318.36c2.38,4,2.78,4.75.4,7.13s-8.32,5.95-4.36,11.5,7.53,7.93,7.93,11.89-5.16,9.52-4.76,13.88,3.57,10.3,4.76,11.49.51,6.6,1.25,12.42,8.66,10.58,9.85,13.35,7.93,12.69,9.12,13.08,11.49,3.17,11.49,3.17l4.76,6,38.85,4.76s4.76,2.77,6,3.17,14.27-.4,14.27-.4l10.7,4,8.93-2.75s11.29,3.14,12.48,3.14,19.42,3.17,19.42,3.17a9.32,9.32,0,0,0,6.34-7.53c.8-5.94,4-9.12-4-9.91s-11.1,2-11.1,2a73.39,73.39,0,0,1-7.14-7.53c-3.17-4,.4-11.89,3.18-13.48s10.3-2.37,10.7-.39-6.34,7.53-.4,7.13a37.17,37.17,0,0,0,10.71-2.38l3.56,5.55,2.78,7.14,9.91-1.19s-2.78,16.25,1.19,19,8.32,4.76,10.7,1.19a40.35,40.35,0,0,0,4.76-10.71c.79-2.77,6.74-7.53,4-15.06s-12.29-8.32-16.25-14.27-11.89-15.06-10.31-19.43,10.31-12.28,11.5-15.85-.4-7.14-6-9.91-9.11-14.67-9.11-14.67-12.29-1.59-13.09-7.14,7.93-2.37,7.14-8.32-8.72-5.95-11.1-6.74-23.39-36.47-28.15-38.06-8.32,5.16-8.32,5.16l-12.29.39-.79,25.77-7.54,10.31s-8.72-1.59-13.08-2-12.29,8.72-15.06,8.72-22.6-3.57-26.56-4-12.69-2-12.69-2l-2.38,4.76-11.89-6Z" transform="translate(-1430.85 -276.49)"/></g></svg>