<svg id="Colors" xmlns="http://www.w3.org/2000/svg" viewBox="0 0 181.2 193.91"><defs><style>.cls-1{fill:blue;}</style></defs><g id="Asia"><path id="_10" data-name="10" class="cls-1" d="M1240.54,475.42c7.57-.14,17.27-3.94,23.18,3.66s12.66,18.56,19,15.19,7.59-5.49,8.86-10.13,11.81-5.49,15.61-7.17,4.64-11.82,10.13-11.4,10.12,6.33,14.76,8,14.77-5.49,16-10.13,5.48-6.33-.85-13.08-9.7-11-8.86-16,4.64-8.44,12.24-13.92,13.5-10.13,13.92-19.41-1.68-16.88-1.68-21.94,4.64-7.18-.43-11.82-10.54-15.19-13.92-13.92-3.8,5.06-3.8,5.06l-5.48-4.64-19.41-2.53-3.8-3-2.53-9.7h-12.66S1280.18,299.75,1273,301s-16,14.76-23.63,15.19l-7.59.42s-5.91-7.18-11.82-5.49-5.06,10.55-8.43,10.55-9.41-5.14-11.88-3-2.05,8.05-5.42,8.48-10.13-5.07-12.24-1.27,0,13.5-2.11,15.19-17.72,16,10.13,49.37c13.92-11,20.67-10.13,21.94-6.33s-4.64,15.19-8,16.45c.42,8.86.42,21.1.42,21.1s8.86-2.11,9.71,1.69-.85,10.55.42,13.08,4.64,8.86,7.17,9.28-4.22,8.44-1.69,11,6.33,4.64,6.76,6.75S1240.54,475.42,1240.54,475.42Z" transform="translate(-1183.62 -300.99)"/></g></svg>