<svg id="Colors" xmlns="http://www.w3.org/2000/svg" viewBox="0 0 193.97 350.34"><defs><style>.cls-1{fill:blue;}</style></defs><g id="Asia"><path id="_8" data-name="8" class="cls-1" d="M1437.14,369.79c-1.79-7,.19-9,.59-12.58s4-7.93.4-11.9-6.35-9.51-6-12.28,3.17-4.37,2.38-9.92-7.53-10.3-10.31-12.28-9.12-6.74-5.94-10.71,7.13-7.53,6.34-13.48-3.57-13.08-3.17-15.46,6.34-6.34,8.72-6.34,2-7.13,6.34-11.89,10.7-11.89,13.08-8.33,11.5,17.05,15.07,15.07,6.34-1.59,5.94-10.31,5.95-13.87,2-17.44-5.55-7.93-4.37-9.91,4.37-5.95,4.76-11.1,1.59-12.69,2-14.67a13,13,0,0,0-1.58-9.51c-2.38-4.37-3.17-7.14-2.38-9.12s-2.38-8.72-3.17-10.31-5.16-9.51-5.16-9.51-2.77-2.38-1.58-5.16a50.37,50.37,0,0,1,4.36-7.13s-4-6.35-10.7-7.53-13.09-1.59-7.93-5.55,11.49-11.9,15.06-11.9,10.31,4.36,14.27,2.78,7.93-21,7.53-27.36,0-19.42-5.15-21.4S1477,65,1477,65s0-8.72-9.12-8.32-13.48.79-15.46,2.38-5.55.39-5.55.39l-6.74-4.36s-7.14,7.93-9.12,8.72-14.67,7.54-14.67,7.54,8.72-12.29,21-17.45c2-14.66.8-19.82.8-19.82l-19-2s-2.38-12.69-7.14-12.69-13.08,11.5-15.85,10.71c-4.37-8.33-21.81-2.38-23.79,1.58-18.63,2-27.75,9.91-29.73,13.88-5.95-1.19-6.34,10.31-6.34,10.31s-20.62-1.59-19.43,9.11c-6.34-.39-18.23,4.76-5.55,22.6s2.38,14.67-2.77,11.1-4.76-12.29-9.91-13.08-11.1,7.13-7.93,13.48,7.93,16.65,7.93,16.65l7.13,7.13,14.27,1.19s3.57,25,4.36,26.56,2.78,18.24,2.78,18.24l7.13-.8,1.19,16.65s18.24,25.77,20.62,29.73-3.17,14.67-2.38,18.24,7.93-.4,8.72,9.12-9.51,29.33-9.12,34.88,1.19,8.33,8.33,8.72,5.55,4.37,5.55,9.12,7.13,8.72,9.91,9.91,5.15,9.12,7.13,9.91,6,.4,6,5.55.4,15.07.4,15.07,5.94,8.32,7.53,9.51,8.32,2.78,8.32,2.78l5.55-2.78,4.5,4.18,3.83,5.34,5.88,14.49Z" transform="translate(-1289.77 -19.45)"/></g></svg>