<svg id="Colors" xmlns="http://www.w3.org/2000/svg" viewBox="0 0 194.79 206.5"><defs><style>.cls-1{fill:#00f3ff;}</style></defs><g id="Australia"><path id="_1" data-name="1" class="cls-1" d="M1634.82,844.13c.53,8.51,0,25,0,25l6.39,5.32,1.06,69.19,68.13-1.06-2.13,63.87v18.62l-6.92,11.18s-5.86,0-8.52-1.6-5.32-6.38-5.32-6.38l-3.73-.54s.54,3.73-3.72,3.73h-8s6.38-25-26.08-22.89-34.07,23.95-42,25-19.16,5.32-21.29,5.32h-2.13s-10.11,11.71-12.77,11.71-13.31-1.6-13.31-1.6-10.11-9-8.51-9.58,3.19-7.45,3.72-9.58-.53-8.51-3.19-9.58-6.39,1.07-6.39-4.79-5.32-17-5.32-17l-5.85-6.38s-1.6-12.25-2.13-17-7.45-19.16-7.45-19.16l-3.73-13.83,9.58-11.18S1569.36,908,1572,903.2s3.72-23.41,5.32-23.41,10.11,8.51,12.24,8.51-1.06-11.18,1.06-14.37,11.18-12.77,12.25-14.37,6.92-11.18,11.17-5.32,9.58,14.9,10.12,10.11,1.59-14.37,4.25-16.5A32.15,32.15,0,0,1,1634.82,844.13Z" transform="translate(-1515.6 -844.13)"/></g></svg>