<svg id="Colors" xmlns="http://www.w3.org/2000/svg" viewBox="0 0 137.79 106.32"><defs><style>.cls-1{fill:#00f3ff;}</style></defs><g id="Australia"><path id="_3" data-name="3" class="cls-1" d="M1642.8,713.2s-1.59,17.56,5.86,18.63.53-17,.53-17,0-5.85,7.45-5.32,21.82,4.26,21.82,4.26l14.9,10.11,9.58,8,11.71,1.59,2.66,16.5,11.18,5.32s1.6,13.84.53,15.44,4.79,10.64,4.79,10.64l8.52,10.65s-.53,25-11.18,21.29-21.29-10.65-21.82-13.31-8.51-12.77-11.18-8,3.2,10.64-6.91,10.11-17.57.53-21.29-3.19-8-8-12.78-8-15.43-2.66-14.9-4.25,3.19-10.65,3.73-12.25,3.72-15.43-2.66-17-14.37-3.19-17-3.72-14.37-16-14.9-18.1-6.38-10.64-6.38-10.64-1.6-12.78,1.06-13.31,6.39-3.72,8.52-4.26,19.16,7.45,19.16,7.45Z" transform="translate(-1604.54 -707.32)"/></g></svg>