<svg id="Colors" xmlns="http://www.w3.org/2000/svg" fill="currentColor" viewBox="0 0 165.14 244.29">
    <g id="Australia">
        <path id="_2" data-name="2" class="cls-1"
            d="M1634.82,844.13c1.06,7.45,1.06,28.74,1.06,28.74l4.26,3.72,2.13,67.06h66v62.81l1.59,3.19s-1.06,15.43-8.51,26.61a131.85,131.85,0,0,1,2.13,22.35h12.77s-5.32,6.39,5.32,6.92,14.37-3.72,14.37-3.72l6.92,4.79,6.92-3.73,5.86-4.26,11.7-.53V1048s16.5-19.69,16.5-21.29,4.26-11.71,4.79-13.84,10.12-14.9,10.12-14.9,6.38-42.05-10.12-58c-1.06-9-8.51-11.71-10.64-13.84,0-9.05-1.6-19.69-17.56-29.27-2.13-9.05-2.67-13.84-6.92-14.91s-11.18-13.3-11.18-13.3-8.52-46.31-19.16-46.31-4.26,24-4.26,24-6.92-1.59-6.92,12.25,2.13,24.48-1.59,25-7.46,1.07-12.78-5.32-11.17-8.52-14.37-9.05-9-1.06-7.45-6.39,8-10.64,8-10.64,9-5.32,2.67-13.31S1652.38,836.14,1634.82,844.13Z"
            transform="translate(-1634.82 -822.3)" />
    </g>
</svg>