<svg id="Colors" xmlns="http://www.w3.org/2000/svg" fill="currentColor" viewBox="0 0 148.79 163.83">
    <g id="Europe">
        <path id="_5" data-name="5" class="cls-1"
            d="M946.6,481.62c-4.33-3.19-13.57-6.28-13.13-9.85s3.42-17.36.43-18-7.39-8,.1-8.68c.56-9.45-1.26-28.79,14.42-23.32S962.29,420,962.29,420s8.75,0,12.76-1.09,5.11-14.59,9.85-16.05,20.79-3.65,23.35-.37-1.1,4.74-1.1,10.22-2.91,12.4,1.46,13.49,19.7,0,21.89-.73,0-6.2-1.09-9.85-.73-9.12,4.37-14.95S1044,386.05,1048,386.78s14.23,13.49,16.78,19.33,1.82,28.09,2.92,29.18,5.83,9.12,6.93,9.12,4,.37,4,.37-3.65,16.05-6.2,19.33-15,13.86-18.24,29.18-5.84,19.7-9.85,20.07a30.1,30.1,0,0,0-6.2,1.09s.37,5.47,4,7.66,9.12,4.74,5.84,10.21-.73,8.76,1.82,9.12,4,8-1.09,8.76-19,.36-21.89-1.1-7.29-12-7.66-15-.73-11.67-3.65-15-9.85-13.86-9.48-19.33-5.47-24.44-21.16-22.25,10.22,9.12,14.23,20.06,5.11,26.63-8.39,13.5c1.82,12.4-5.84,32.83-29.18,32.83s-24.44-13.13-19-15.69,19,1.83,22.25-1.82,2.92-9.12,1.46-13.13-19-20.07-21.52-22.62Z"
            transform="translate(-929.87 -386.73)" />
    </g>
</svg>