<svg id="Colors" xmlns="http://www.w3.org/2000/svg" viewBox="0 0 140.48 154.4"><defs><style>.cls-1{fill:#00ff12;}</style></defs><g id="Europe"><path id="_7" data-name="7" class="cls-1" d="M762.18,378.14c1.31,13.54,29.7,21.84,38,18.35s15.72-13.11,16.16-22.28,7.86-32.76,12.67-22.72-8.3,16.17-6.12,20.54,13.11,1.74,12.67,5.24-22.28,17.91-17.91,22.28,12.67-4.81,14-4.81,11.36.44,11.36.44l2.62-8.74,45-4.8s12.23-7.87,3.93-14.42c4.81-7.43,10.05-11.36,7.43-16.6s-9.18-10.48-10.92-11.79-39.32-38-39.32-38,12.23-12.66,12.23-17,6.12-11.36-.87-14-10.05-3.06-10.92-6.12-1.75-8.3-2.18-10-1.75-10.49-6.12-6.12-12.23,6.12-12.23,6.12-7.86,2.62-8.3,4.8-7.43,25.77-7.43,28.83,3.94,16.16,3.94,16.16,3.93,1.75,3.93,4.81-4.37,5.24-6.12,5.24-13.54-3.06-15.72-1.31-13.55,13.11-15.29,16.16-9.61,15.29-8.3,18.35.87,10.48-3.06,12.23-12.23,8.74-12.23,11.36A68,68,0,0,1,762.18,378.14Z" transform="translate(-762.18 -246.32)"/></g></svg>