<svg id="Colors" xmlns="http://www.w3.org/2000/svg" viewBox="0 0 148.67 151.67"><defs><style>.cls-1{fill:#00ff12;}</style></defs><g id="Europe"><path id="_4" data-name="4" class="cls-1" d="M916.67,385.1c3.3,9.7,13.88,19.55,15.7,23.2s4.75,13.86,4.75,13.86c6.93-1.46,14.59-.73,17.87,1.09s6.93-4.74,10.58-4.74,10.94,4,13.5-4,4.74-15.32,21.52-13.86,6.56,9.48,6.56,12-1.46,13.49,2.92,14.22,18.61,2.56,20.43-2.55-3.28-8.39-1.46-13.86,11.67-23,13.86-23c-3.64-6.57-.73-13.87,10.58-12.77,4.93.47,6.45-7.43,8.76-15,3-9.76,5.44-20.16-.73-24.07-11-6.93-.73-23.71-4.75-26.63s-19.33-12-27.72-12.77-43,8-45.23,8-8.39-4-6.57-8.39-1.09-21.15-8.39-19.69a13.66,13.66,0,0,0-10.21,9.85c-1.44,5.88.81,14.4,0,25.17-1.1,14.59-33.2,41.22-37.21,47.05S916.67,385.1,916.67,385.1Z" transform="translate(-916.67 -276.16)"/></g></svg>