<svg id="Colors" xmlns="http://www.w3.org/2000/svg" fill="currentColor" viewBox="0 0 100 74.51">
    <g id="Europe">
        <path id="_1" data-name="1" class="cls-1"
            d="M869.4,180.56c8.82,0,19.1-10.29,25-10.29s9.31,8.33,15.67,10.29,12.25,11.75,12.25,11.75,2.94,13.23,0,19.1-9.8,12.25-13.72,14.21S890,232,886.06,237.37s-5.39,8.82-12.25,6.86-6.37-5.39-12.73-5.39-20.57-4.9-22.53-5.39-2-14.69-2-14.69l-8.32-4.9s-.49-4.9,2.44-8.32-11.26-9.31-5.87-13.23,11.26-16.16,13.71-16.16,11.75,2.45,11.75,2.45l6.37,8.82,2.94-4.41,7.35-2.45Z"
            transform="translate(-823.6 -170.27)" />
    </g>
</svg>