<svg id="Colors" xmlns="http://www.w3.org/2000/svg" viewBox="0 0 145.35 177.91"><defs><style>.cls-1{fill:#00ff12;}</style></defs><g id="Europe"><path id="_2" data-name="2" class="cls-1" d="M1076.81,124.88c.61,5.34-.57,11.69-.19,24s-3.91,37.83-2.92,47.8c1.17,11.79,6.53,17.68,5.76,21.9s-6.14,11.53-15.37,13.83-24.2,5.77-27.66,3.85-5.77-8.46-1.54-18.06,3.84-15.76.77-17.68-16.14,20-16.14,23.83,5.77,6.14,5,13.06-9.23,14.22-13.45,21.13,7.6,27.21-16.52,33.43c-11.92,3.08-13.07-19.21-18.45-23.44s-9.6-8.45-13.06-3.45-15,4.61-22.29-9.23,1.15-17.29-1.92-20-8.07-18.44-1.15-29.2S969.57,189,974.56,176.3s13.45-23.43,18.45-25c-6.92-11.14,6.15-21.14,15.75-12.68,1.92-10,8.46-5,11.91-4.23-2.69-9.6,4.62-25.74,28.82-16.52C1053.72,110.21,1072.61,116.12,1076.81,124.88Z" transform="translate(-934.19 -114.34)"/></g></svg>