<svg id="Colors" xmlns="http://www.w3.org/2000/svg" viewBox="0 0 133.53 184.63"><defs><style>.cls-1{fill:#00ff12;}</style></defs><g id="Europe"><path id="_6" data-name="6" class="cls-1" d="M916.67,385.1C928,401.77,934,415.77,935.33,419.77s-1.89,21.93-1.33,25.34c-3.35,1.24-6.61,5.42-.1,8.68,0,7-2.79,11.62,0,14.41a103.68,103.68,0,0,1,8.37,10.23c.93,1.4-3.25,7.44-7.9,7.91s-11.16,1.39-12.56-.93-.93-6.51-2.79-7-4.18,8.37-3.25,11.16,5.11,7.9,5.11,9.3-7.44,7-6.51,10.69,9.3,13.95,3.72,24.64-13.94,16.28-13.94,23.25c-4.65,2.33-7.91,1.86-7.91,1.86s-3.72,9.3-9.3,9.3-17.67,4.65-24.64-5.12c-15.81-3.25-39-5.11-39-5.11S811.16,545.85,813,535.15s9.76-15.8,9.76-26.5-19.06-18.6-12.55-27.89,16.27-13.49,28.36-6.05,23.71-5.11,21.85-18.6-27-33-20-37.66,23.25-1.86,27.9-3.25,1.85-9.76,6.5-13.48,15.81.93,19.53-.47-1.86-11.62,3.72-12.55S916.67,385.1,916.67,385.1Z" transform="translate(-808.87 -385.1)"/></g></svg>