<svg id="Colors" xmlns="http://www.w3.org/2000/svg" fill="currentColor" viewBox="0 0 239.48 363.4">
    <g id="Europe">
        <path id="_3" data-name="3" class="cls-1"
            d="M1036.51,297.09c9.17,7.49,20.82,9.73,19.46,25.29-.66,7.55,2.87,12.68,5.75,14.93s7.71,8.66,1.93,17.33-6.1,10.91-5.78,14.11-2.56,6.42-13.47,8.35-2.89,10.59,5.77,10.91,16,15.72,15.73,33.05,5.77,22.78,13.79,23.74c2.89-7.06,10-18.29,18.94-1.92s26.63-3.85,21.17-8.34-5.45-7.71-5.45-7.71l21.18-5.13s-11.56,16-9.31,19.25,41.72,43.64,52,41.72,29.2-5.14,25-21.18c-.64-5.78,1.61-10.27,4.82-10.91s4.17-5.78-5.46-15.08-16.36-23.11-15.08-28.88,14.12-7.06,13.16-14.44-26.32-18-13.48-52.95l7.38-14.12,10.91.65,4.17-7.06,17.65,1.92s-1-15.72,12.83-8,32.41-5.45,30.81-15.08-7.7-13.48-8.34-16.69,12.19-3.85,10.26-12.83-16.36-8.35-18.61-14.76,9.31-7.38,9-14.12-6.42-11.87-7.06-16.05,8-18.61,4.81-24.38-5.77-15.4-5.77-20.54,14.76-9.63,12.83-31.77-17.33-25.67-24.07-26.95-19.89,10.91-27.59,9.63-11.23-5.78-15.4-5.14-25.67,24.71-31.13,23.43-2.89-7.38-4.49-9.63-15.4-4.81-16.37-4.49-1.6,17,.32,18.61,7.71,3.53,5.14,6.1-7.38,1.92-10.91,7.7-3.53,11.55-9.31,11.55-9.3-9.95-14.12-6.42,3.85,9.63.65,11.23-23.43-21.5-23.43-21.5,21.82,1,27.6-.32,14.44-7.7,15.08-16.36-.32-14.12-13.16-14.76-50-4.18-50-4.18l-2.25,85,5.45,6.74s-14.44,21.82-18.29,24.06-17.64,0-18.29,1.61-2.56,11.23,2.89,14.76,11.55,7.38,8.34,9-14.44-2.24-17-3.85S1030.56,289.92,1036.51,297.09Z"
            transform="translate(-1033.58 -119.33)" />
    </g>
</svg>