<svg id="Colors" xmlns="http://www.w3.org/2000/svg" viewBox="0 0 221.86 215.96"><defs><style>.cls-1{fill:#ff00c9;}</style></defs><g id="North_America" data-name="North America"><path id="_9" data-name="9" class="cls-1" d="M619.74,93.09c-3.83-5.17,8.63-8.63,8.63-8.63l-3.83-6.24s11-6.23,13-6.23,0-15.35,3.83-15.35a74.12,74.12,0,0,0,9.6-1s-8.16-2.4,11.51-11,25.9-11,27.82-6.24S728.62,16.83,735.82,12s17.75.48,20.63,1.44,47.48,1.92,47.48,6.23-18.7,11.52-14.39,15.83,51.81-16.31,51.33-8.63S820.24,49,818.8,56.64s4.8,24.46,5.76,28.3,0,14.39-2.88,18.23-11.51,2.4-12.95,6.23,13.43,14.39,9.11,18.23-13,3.84-14.39,2.4,1.92,8.15,1.92,8.15S791,142,787.14,142s-21.58,36-44.6,34.06c-6.24,12-17.27,22.06-14.87,24.94s6.23,18.71,0,22.54-16.79,2.88-20.63-1-13.91-13.43-15.83-15.82-1-17.27-3.36-23.51S680.66,166,683.06,165s10.55-10.55,7.19-12-8.63-6.71-8.63-8.63,6.71-1.92,5.27-6.72-28.78-36.93-28.78-36.93S629.33,106,619.74,93.09Z" transform="translate(-619.01 -10.04)"/></g></svg>