<svg id="Colors" xmlns="http://www.w3.org/2000/svg" viewBox="0 0 144.31 181.95"><defs><style>.cls-1{fill:#ff00c9;}</style></defs><g id="North_America" data-name="North America"><path id="_6" data-name="6" class="cls-1" d="M363.84,428.57c5.06,12,6.33,24.06,7,36.08s16.46,29.75,18.36,33.55,5.69,20.25,11.39,19-15.19-57-13.93-61.39C394.85,475.41,402.45,492.5,405,495s9.49,7.6,9.49,11.39-2.53,22.79,1.9,25.32,27.22,10.76,30.38,15.82,1.27,20.26,3.17,20.26,8.23-1.27,8.86,5.69S461.31,614,486,610.22c8.87-10.76,22.16-27.84,22.16-27.84h-24s19.62-29.12,19-34.18-15.19-9.5-13.92-13.29,12-7,13.29-10.13,3.16-21.52-1.9-22.15S478.4,505.79,475.23,521c-8.86-.63-17.08-.63-17.08-.63s-3.8-22.15,1.26-24.05,3.8-17.72,1.9-19-6.33-10.13-11.39-14.56c-5.07,0-10.76-2.53-14.56-3.79s-3.8-9.5-8.23-12-25.32,3.16-29.75.63-3.79-10.12-7.59-12-15.19-3.17-15.19-3.17Z" transform="translate(-363.84 -428.57)"/></g></svg>