<svg id="Colors" xmlns="http://www.w3.org/2000/svg" viewBox="0 0 154.24 158.47"><defs><style>.cls-1{fill:#ff00c9;}</style></defs><g id="North_America" data-name="North America"><path id="_5" data-name="5" class="cls-1" d="M364.84,304.29c32,.38,141.12,0,141.12,0V383c-3.08,6.55-6.55,8.86-12.72,7.71s-18.13-5.79-18.13,6.94c0,3.47,1.16,10-5.39,10.41s-8.1,5.78-8.49,8.87-4.62,5.4-3.85,18.12c-3.47,2.7-8.1.77-8.1,6.55s.12,17.34.64,21.2c-8-1.15-14.52-1.92-17.61-9.24s-27.76-3.86-32.38-4.63-9.64-10-10-11.18-20-4.63-28.53-17.35c-4.6-6.91-9.85-21.13-9.64-33.16.17-10.15,5.43-18.07,6.17-25.45.38-3.86-3.47-36.63,0-39.33s10.41-2.31,10.41-8.87S364.84,304.29,364.84,304.29Z" transform="translate(-351.72 -304.29)"/></g></svg>