<svg id="Colors" xmlns="http://www.w3.org/2000/svg" viewBox="0 0 130.89 190.68"><defs><style>.cls-1{fill:#ff00c9;}</style></defs><g id="North_America" data-name="North America"><path id="_8" data-name="8" class="cls-1" d="M576.64,332.29c0-16,8-60.68,7.09-70.42s1.77-15.51,7.53-18.16,11.51-10.19,7.08-17.72-4-19.49,2.22-23,1.33-16.83,4.87-20.82,44.29-2.66,43.85,12.84-4,24.37,1.33,24.37,8-19.94,18.16-15.51,4,8.86,4.43,14.62,8,2.21,9.3,5.31-2.66,13.29.44,16.84,13.29,1.32,14.17,14.17c9.75,3.54,19,22.73-3.54,37.2-6.2,4-11.51,5.32-13.73,8.86-7.53,2.22-20.82-.44-20.82,4.43s.45,19.05,2.22,20.38,10.19-1.33,14.61,4-10.18,18.16-12,22.59-7.09,19.93-12.85,18.6-8.41-7.53-6.64-21.7,3.76-20.56-3.52-23.83c-9.32-4.18-9.77,15-31,15s-12-10.63-21.26-10.19S576.64,332.29,576.64,332.29Z" transform="translate(-576.64 -180.23)"/></g></svg>