<svg id="Colors" xmlns="http://www.w3.org/2000/svg" viewBox="0 0 154.08 162.02"><defs><style>.cls-1{fill:#ff00c9;}</style></defs><g id="North_America" data-name="North America"><path id="_1" data-name="1" class="cls-1" d="M326.82,112.31c-15.65-7.83-21.41-5-27.18-5.36S296.76,97.89,281.93,95s-36.65,9.47-33.77,21.83c-12.76-7-33.36-14-7,18.94-19.77-10.71-28.83-1.23-28,7s4.94,14.42,25.53,12.36c2.47,9.47-7.41,9.06-21.41,5.76S202.86,184,216,195.5c1.65,11.12,4.12,15.65,10.71,15.23,6.17,1.65,11.94,9.48,11.12,12.77s-12.36,4.94-13.59,9.88,0,17.3,16.06,5.77,23.06-31.3,25.12-31.3,2.06,12.77,5.76,10.3,16.48-9.48,18.95-21c7,9.06,18.53,12.36,24.71,14,5.35,10.29,14,14.41,18.12,15.23,2.47,11.12,8.08,31.84,13.31,30.13s16.34-14.07,13.87-19.83-9.33-5.31-9.47-9.06,4.12-22.24-2.89-24.71c-.41-4.94-1-13.1-1-13.1l-11.31.33A14.83,14.83,0,0,1,327.64,177c0-9.47.34-32.59.34-32.59l4.2-6.53-.27-25Z" transform="translate(-206.46 -94.59)"/></g></svg>