<svg id="Colors" xmlns="http://www.w3.org/2000/svg" viewBox="0 0 198.12 196.01"><defs><style>.cls-1{fill:#ff00c9;}</style></defs><g id="North_America" data-name="North America"><path id="_7" data-name="7" class="cls-1" d="M506,304.29c-.57,17.24-.09,77.27-.09,80.2s-6.83,4.88-10.73,6.34-21-4.53-20,6.77-8.77,10.8-11.21,14.22-6.7,19-6.52,23.18-10.56,5.61-10.07,11,3.41,18.55,6.83,21,6.35,14.15,11.71,11.71S476.1,468,491.23,468s23.92,0,23.92-3.42,3.9-8.3,6.83-3.42,16.59,7.32,20.5,6.84,8.78-10.74,8.3,4.88-.49,33.67,17.57,25.37,10.73-25.37,8.29-29.77-4.88-20.5,12.69-27.82,21.48-21,17.08-33.67,17.09-7.81,21-25.38,4.88-26.36,14.15-26.84c3.42-12.2,6.84-28.31-.48-30.26s-18.06,12.69-20,12.69-14.15,4.39-20,1-12.2-10.73-26.35-4.39c-22-11.71-38.07-27.33-49.78-28.31S506,304.29,506,304.29Z" transform="translate(-447.29 -304.29)"/></g></svg>