<svg id="Colors" xmlns="http://www.w3.org/2000/svg" viewBox="0 0 272.89 130.19"><defs><style>.cls-1{fill:#ff00c9;}</style></defs><g id="North_America" data-name="North America"><path id="_2" data-name="2" class="cls-1" d="M331.91,112.87a126.5,126.5,0,0,1,.79,26.38L328,144.37s.39,27.16.39,35.43,3.15,11.42,11.81,11.81,61-.39,61-.39l6.69,3.15,106.83.64,5.37,2.9,10.63-.39s12.6-20.48,16.14-20.87,14.18,0,15.36-4.33-.79-9.84,1.57-13,13.39-2,17.72-3.94,26.65-17.07,16.93-35.82c-5.51-10.63-15.36-4.73-17.32-2.76s-9.06,6.3-13,3.94-10.63-29.53-4.33-35.44,10.63-11.81,7.48-16.14-18.5,2-23.62,6.3-11.81,14.18-11.81,17.72-1.18,28-1.18,28c-3.94-5.9-18.11-29.53-21.65.79-21.65-7.09-33.86-10.63-35.43,7.87L459.07,131c-10.23-14.17-20.07-22.44-34.64-15.35.79-14.57-15-22-34.65-2-14.17,2-26.77,2-28.73,2.76s-7.48.78-7.48-5.12-9.45-2.76-11.82-2S331.91,112.87,331.91,112.87Z" transform="translate(-327.98 -67.72)"/></g></svg>