<svg id="Colors" xmlns="http://www.w3.org/2000/svg" fill="currentColor" viewBox="0 0 139.29 281.75">
    <g id="South_America" data-name="South America">
        <path class="cls-1"
            d="M544.11,785.54c13.35,9.89,22.26,22.75,27.2,22.25s3.46-10.38,8.41-9.89,8.4,6.43,21.26,6.43,4.45,9.89,12.37,11.38,14.34,4.94,18.79,3.95-2.48,18.3-1.49,22.26S650.93,832,655.87,832s-12.36,17.3-11.86,19.78,7.91,2.47,9.39,3.46-2,10.88.5,10.88,8.9,4.45,8.9,5.93.49,6.93,2,8.9,5.44,5.44,9.39,6.43c-4.45,9.4-10.38,12.86-12.86,13.85s-9.39,3.46-9.39,3.46,5.93,11.37-5.94,22.75-19.78,7.42-22.25,8.9-3,11.87-5,13.85-11.86-1-13.35,3,2.48,17.31,1,22.75-9.89,11.38-10.38,15.33,11.87,6.93,12.36,11.87-14.84,11.87-13.35,30.66,17.8,17.8,17.31,24.23-27.7,12.86-31.65,6.93-22.75-26.21-24.23-31.65-4-24.23-4-27.7-7.91-.49-10.88-7.41,14.62-19.83,12.36-32.64c-1.48-8.41-10.38-4.45-11.87-11.87s-8.9-37.09-6.92-43.52,13.35-15.33,14.34-27.69-8.9-7.91-8.41-21.76,6.43-11.87,4.46-26.21S539.66,805.32,544.11,785.54Z"
            transform="translate(-534.88 -785.54)" />
    </g>
</svg>