<svg id="Colors" xmlns="http://www.w3.org/2000/svg" fill="currentColor" viewBox="0 0 198.13 206.77">
    <g id="South_America" data-name="South America">
        <path class="cls-1"
            d="M542.53,784.3s-22.7-22.7-32.31-26.19-24.44-28.81-25.31-33.18-21-20.08-23.58-26.19.88-36.67,2.62-42.78,12.91-16.8,18.35-19.76c3.95,11.86,39.56,34.61,49.45,35.11-4,9.89-18.79,17.8-17.8,26.7s6.92,6.92,10.38,9.89,2.47,7.42,5.94,7.91,11.86-8.4,14.83-3.95-9.89,13.35-4.94,16.81,30.16-8.9,32.63-8.41S598,744,602.47,743.51s7.41-4,9.89-1.49,22.74,32.15,22.74,35.11-.49,18.3,1,20.28,9.4,3,12.37,5.44,11.37,21.76,9.89,28.19c-10.88,4-21.33,15.42-27.7,10.88-3.46-2.48,5.44-17.31,3-23.25s-10.88,2-20.27-3-4-9.89-7.92-11.87-18.79-1-18.79-1a9,9,0,0,0-6.92-5c-5-.49-3.46,10.88-6.93,10.39S542.53,784.3,542.53,784.3Z"
            transform="translate(-460.39 -636.2)" />
    </g>
</svg>