<svg id="Colors" xmlns="http://www.w3.org/2000/svg" viewBox="0 0 194.01 110.62"><defs><style>.cls-1{fill:#fc4d00;}</style></defs><g id="South_America" data-name="South America"><path class="cls-1" d="M480.48,637.14c1.74,9.57,47.41,33.94,55.24,36.11S551,670.64,551,661.07s-3.48-13.49,1.3-18.27,19.58,11.31,29.58,3-2.61-14.79,2.18-17.4,7.39,4.35,11.74,2.18,9.14-10,12.62-5.66,0,20,23.92,18.27,47-17,41.33-29.14-21.75,2.17-32.63-2.61-31.32-29.15-33.49-31.32-33.5,1.74-40.89-1.31-16.1-14.35-25.67-15.66-51.76,28.23-52.63,45.68C487.87,617.57,496.14,630.18,480.48,637.14Z" transform="translate(-480.48 -563.15)"/></g></svg>