<svg id="Colors" xmlns="http://www.w3.org/2000/svg" fill="currentColor" viewBox="0 0 276.29 266.13">
    <g id="South_America" data-name="South America">
        <path class="cls-1"
            d="M675.33,621.28c11,10.53,16.55,28.58,23.07,31.09s15.54-2,18.55.5,4,11,20.56,9.53,52.15,13.53,51.65,37.1-25.95,25.41-31.59,39.11c-3.51,8.53,1,14,.5,21.06S739,803.8,735,806.81s-17.55,1-31.09,10-3.51,14-5,23.07-23.38,35.86-24.73,47.51c-9.87-3.38-9.87-10.72-11.37-15.33s-8.28-2.75-8.9-5.93.37-10.2-1.13-12.71-4.52,4.51-9,0c3-6,15.67-14.22,14.61-22.4s-4.08-29.25-19.62-31.76c-2-14-9.12-41.81-26.37-57.26-9.89,1.49-29.79-12.43-37.31-21.46-11.54,3.51-29.67,13.21-34.89,8.11s8.09-12,4.94-16.81-12.17,5.69-15.68,2.18-16.55-11-16.55-19,20.56-16,21.06-22.57c14,2,16.49-2.15,17-11.35s-3.94-14.8,1.3-18.27,18.2,8.34,24.8,6.06c13-4.52,2.38-19.27,7-20.42s5.08,4.37,10.09,3.87,8-12.18,14.27-7.35-2.06,19.17,23.92,18.27S673.33,627.3,675.33,621.28Z"
            transform="translate(-512.87 -621.28)" />
    </g>
</svg>